%TF.GenerationSoftware,KiCad,Pcbnew,(5.1.9)-1*%
%TF.CreationDate,2021-03-01T12:10:23+05:30*%
%TF.ProjectId,Charger,43686172-6765-4722-9e6b-696361645f70,rev?*%
%TF.SameCoordinates,Original*%
%TF.FileFunction,Copper,L2,Bot*%
%TF.FilePolarity,Positive*%
%FSLAX46Y46*%
G04 Gerber Fmt 4.6, Leading zero omitted, Abs format (unit mm)*
G04 Created by KiCad (PCBNEW (5.1.9)-1) date 2021-03-01 12:10:23*
%MOMM*%
%LPD*%
G01*
G04 APERTURE LIST*
%TA.AperFunction,SMDPad,CuDef*%
%ADD10R,1.080000X1.420000*%
%TD*%
%TA.AperFunction,ComponentPad*%
%ADD11C,1.650000*%
%TD*%
%TA.AperFunction,ComponentPad*%
%ADD12R,1.650000X1.650000*%
%TD*%
%TA.AperFunction,SMDPad,CuDef*%
%ADD13R,0.950000X2.150000*%
%TD*%
%TA.AperFunction,SMDPad,CuDef*%
%ADD14R,3.250000X2.150000*%
%TD*%
%TA.AperFunction,SMDPad,CuDef*%
%ADD15R,0.600000X0.560000*%
%TD*%
%TA.AperFunction,SMDPad,CuDef*%
%ADD16R,0.560000X0.600000*%
%TD*%
%TA.AperFunction,SMDPad,CuDef*%
%ADD17R,1.600000X2.720000*%
%TD*%
%TA.AperFunction,SMDPad,CuDef*%
%ADD18R,0.940000X1.020000*%
%TD*%
%TA.AperFunction,SMDPad,CuDef*%
%ADD19R,2.720000X1.600000*%
%TD*%
%TA.AperFunction,SMDPad,CuDef*%
%ADD20R,1.000000X1.420000*%
%TD*%
%TA.AperFunction,SMDPad,CuDef*%
%ADD21R,1.420000X1.000000*%
%TD*%
%TA.AperFunction,SMDPad,CuDef*%
%ADD22R,0.490000X0.600000*%
%TD*%
%TA.AperFunction,ComponentPad*%
%ADD23O,1.524000X3.048000*%
%TD*%
%TA.AperFunction,SMDPad,CuDef*%
%ADD24R,1.050000X0.600000*%
%TD*%
G04 APERTURE END LIST*
D10*
%TO.P,C2,2*%
%TO.N,Net-(C2-Pad2)*%
X89287000Y-66103500D03*
%TO.P,C2,1*%
%TO.N,Net-(C2-Pad1)*%
X87497000Y-66103500D03*
%TD*%
D11*
%TO.P,D2,A*%
%TO.N,Net-(D2-PadA)*%
X83642200Y-56422000D03*
D12*
%TO.P,D2,C*%
%TO.N,VinL*%
X83642200Y-67022000D03*
%TD*%
%TO.P,D4,1*%
%TO.N,Net-(D4-Pad1)*%
%TA.AperFunction,SMDPad,CuDef*%
G36*
G01*
X95303001Y-45547000D02*
X92402999Y-45547000D01*
G75*
G02*
X92153000Y-45297001I0J249999D01*
G01*
X92153000Y-44496999D01*
G75*
G02*
X92402999Y-44247000I249999J0D01*
G01*
X95303001Y-44247000D01*
G75*
G02*
X95553000Y-44496999I0J-249999D01*
G01*
X95553000Y-45297001D01*
G75*
G02*
X95303001Y-45547000I-249999J0D01*
G01*
G37*
%TD.AperFunction*%
%TO.P,D4,2*%
%TO.N,Net-(C1-Pad1)*%
%TA.AperFunction,SMDPad,CuDef*%
G36*
G01*
X95303001Y-41097000D02*
X92402999Y-41097000D01*
G75*
G02*
X92153000Y-40847001I0J249999D01*
G01*
X92153000Y-40046999D01*
G75*
G02*
X92402999Y-39797000I249999J0D01*
G01*
X95303001Y-39797000D01*
G75*
G02*
X95553000Y-40046999I0J-249999D01*
G01*
X95553000Y-40847001D01*
G75*
G02*
X95303001Y-41097000I-249999J0D01*
G01*
G37*
%TD.AperFunction*%
%TD*%
%TO.P,D5,1*%
%TO.N,Net-(D5-Pad1)*%
%TA.AperFunction,SMDPad,CuDef*%
G36*
G01*
X83637400Y-43283801D02*
X83637400Y-40383799D01*
G75*
G02*
X83887399Y-40133800I249999J0D01*
G01*
X84687401Y-40133800D01*
G75*
G02*
X84937400Y-40383799I0J-249999D01*
G01*
X84937400Y-43283801D01*
G75*
G02*
X84687401Y-43533800I-249999J0D01*
G01*
X83887399Y-43533800D01*
G75*
G02*
X83637400Y-43283801I0J249999D01*
G01*
G37*
%TD.AperFunction*%
%TO.P,D5,2*%
%TO.N,Net-(D4-Pad1)*%
%TA.AperFunction,SMDPad,CuDef*%
G36*
G01*
X88087400Y-43283801D02*
X88087400Y-40383799D01*
G75*
G02*
X88337399Y-40133800I249999J0D01*
G01*
X89137401Y-40133800D01*
G75*
G02*
X89387400Y-40383799I0J-249999D01*
G01*
X89387400Y-43283801D01*
G75*
G02*
X89137401Y-43533800I-249999J0D01*
G01*
X88337399Y-43533800D01*
G75*
G02*
X88087400Y-43283801I0J249999D01*
G01*
G37*
%TD.AperFunction*%
%TD*%
%TO.P,D6,2*%
%TO.N,Vsmp*%
%TA.AperFunction,SMDPad,CuDef*%
G36*
G01*
X96698000Y-54409001D02*
X96698000Y-51508999D01*
G75*
G02*
X96947999Y-51259000I249999J0D01*
G01*
X97748001Y-51259000D01*
G75*
G02*
X97998000Y-51508999I0J-249999D01*
G01*
X97998000Y-54409001D01*
G75*
G02*
X97748001Y-54659000I-249999J0D01*
G01*
X96947999Y-54659000D01*
G75*
G02*
X96698000Y-54409001I0J249999D01*
G01*
G37*
%TD.AperFunction*%
%TO.P,D6,1*%
%TO.N,Net-(C8-Pad1)*%
%TA.AperFunction,SMDPad,CuDef*%
G36*
G01*
X92248000Y-54409001D02*
X92248000Y-51508999D01*
G75*
G02*
X92497999Y-51259000I249999J0D01*
G01*
X93298001Y-51259000D01*
G75*
G02*
X93548000Y-51508999I0J-249999D01*
G01*
X93548000Y-54409001D01*
G75*
G02*
X93298001Y-54659000I-249999J0D01*
G01*
X92497999Y-54659000D01*
G75*
G02*
X92248000Y-54409001I0J249999D01*
G01*
G37*
%TD.AperFunction*%
%TD*%
D13*
%TO.P,Q1,1*%
%TO.N,Net-(Q1-Pad1)*%
X93966000Y-61171500D03*
%TO.P,Q1,2*%
%TO.N,N/C*%
X96266000Y-61171500D03*
%TO.P,Q1,3*%
%TO.N,Net-(Q1-Pad3)*%
X98566000Y-61171500D03*
D14*
%TO.P,Q1,4*%
%TO.N,Net-(D5-Pad1)*%
X96266000Y-66971500D03*
%TD*%
D15*
%TO.P,R1,1*%
%TO.N,Vint*%
X109664500Y-31696000D03*
%TO.P,R1,2*%
%TO.N,Stat1*%
X109664500Y-32566000D03*
%TD*%
D16*
%TO.P,R2,2*%
%TO.N,Stat2*%
X114925500Y-35623500D03*
%TO.P,R2,1*%
%TO.N,Vint*%
X114055500Y-35623500D03*
%TD*%
D17*
%TO.P,R3,1*%
%TO.N,Net-(R3-Pad1)*%
X91185000Y-33883600D03*
%TO.P,R3,2*%
%TO.N,gnd*%
X95505000Y-33883600D03*
%TD*%
D18*
%TO.P,R4,1*%
%TO.N,Net-(R4-Pad1)*%
X105890000Y-58801000D03*
%TO.P,R4,2*%
%TO.N,gnd*%
X107470000Y-58801000D03*
%TD*%
D19*
%TO.P,R5,1*%
%TO.N,Net-(R5-Pad1)*%
X99085400Y-32968200D03*
%TO.P,R5,2*%
%TO.N,gnd*%
X99085400Y-37288200D03*
%TD*%
D18*
%TO.P,R6,2*%
%TO.N,gnd*%
X109946000Y-56451500D03*
%TO.P,R6,1*%
%TO.N,Net-(R6-Pad1)*%
X108366000Y-56451500D03*
%TD*%
%TO.P,R7,2*%
%TO.N,Net-(R7-Pad2)*%
X98986400Y-41097200D03*
%TO.P,R7,1*%
%TO.N,Net-(R7-Pad1)*%
X97406400Y-41097200D03*
%TD*%
D17*
%TO.P,R8,1*%
%TO.N,Net-(R7-Pad2)*%
X110235000Y-59944000D03*
%TO.P,R8,2*%
%TO.N,gnd*%
X114555000Y-59944000D03*
%TD*%
D18*
%TO.P,R9,1*%
%TO.N,Net-(R7-Pad1)*%
X97406400Y-44856400D03*
%TO.P,R9,2*%
%TO.N,Net-(R10-Pad1)*%
X98986400Y-44856400D03*
%TD*%
D19*
%TO.P,R10,2*%
%TO.N,gnd*%
X125349000Y-58865500D03*
%TO.P,R10,1*%
%TO.N,Net-(R10-Pad1)*%
X125349000Y-54545500D03*
%TD*%
D20*
%TO.P,R11,1*%
%TO.N,Net-(C1-Pad1)*%
X84383600Y-37922200D03*
%TO.P,R11,2*%
%TO.N,Vin_sense*%
X86253600Y-37922200D03*
%TD*%
D16*
%TO.P,R12,1*%
%TO.N,Net-(C1-Pad1)*%
X92465500Y-37401500D03*
%TO.P,R12,2*%
%TO.N,Net-(D2-PadA)*%
X93335500Y-37401500D03*
%TD*%
D21*
%TO.P,R13,2*%
%TO.N,en*%
X101219000Y-61196500D03*
%TO.P,R13,1*%
%TO.N,VinL*%
X101219000Y-59326500D03*
%TD*%
D16*
%TO.P,R14,2*%
%TO.N,gnd*%
X111052000Y-35750500D03*
%TO.P,R14,1*%
%TO.N,en*%
X110182000Y-35750500D03*
%TD*%
D22*
%TO.P,R15,2*%
%TO.N,dcm*%
X93101500Y-56324500D03*
%TO.P,R15,1*%
%TO.N,Net-(D3-PadA)*%
X92191500Y-56324500D03*
%TD*%
D17*
%TO.P,R16,2*%
%TO.N,dcm*%
X88367600Y-33858200D03*
%TO.P,R16,1*%
%TO.N,Net-(C9-Pad1)*%
X84047600Y-33858200D03*
%TD*%
D18*
%TO.P,R17,2*%
%TO.N,gnd*%
X106708000Y-61976000D03*
%TO.P,R17,1*%
%TO.N,Net-(C9-Pad1)*%
X105128000Y-61976000D03*
%TD*%
D23*
%TO.P,U1,1*%
%TO.N,gnd*%
X113157000Y-51117500D03*
%TO.P,U1,2*%
%TO.N,Vint*%
X110617000Y-51117500D03*
%TO.P,U1,3*%
%TO.N,Net-(C8-Pad1)*%
X108077000Y-51117500D03*
%TD*%
D24*
%TO.P,D3,C*%
%TO.N,VinL*%
X87754000Y-55689500D03*
%TO.P,D3,A*%
%TO.N,Net-(D3-PadA)*%
X90554000Y-55689500D03*
%TD*%
M02*
