%TF.GenerationSoftware,KiCad,Pcbnew,(5.1.9)-1*%
%TF.CreationDate,2021-03-01T12:10:23+05:30*%
%TF.ProjectId,Charger,43686172-6765-4722-9e6b-696361645f70,rev?*%
%TF.SameCoordinates,Original*%
%TF.FileFunction,Legend,Bot*%
%TF.FilePolarity,Positive*%
%FSLAX46Y46*%
G04 Gerber Fmt 4.6, Leading zero omitted, Abs format (unit mm)*
G04 Created by KiCad (PCBNEW (5.1.9)-1) date 2021-03-01 12:10:23*
%MOMM*%
%LPD*%
G01*
G04 APERTURE LIST*
%ADD10C,0.120000*%
%ADD11C,0.200000*%
%ADD12C,0.127000*%
%ADD13C,0.010000*%
%ADD14C,0.015000*%
%ADD15C,0.150000*%
G04 APERTURE END LIST*
D10*
%TO.C,D4*%
X95813000Y-40422000D02*
X95813000Y-45807000D01*
X95813000Y-45807000D02*
X91893000Y-45807000D01*
X91893000Y-45807000D02*
X91893000Y-40422000D01*
%TO.C,D5*%
X88762400Y-43793800D02*
X83377400Y-43793800D01*
X83377400Y-43793800D02*
X83377400Y-39873800D01*
X83377400Y-39873800D02*
X88762400Y-39873800D01*
%TO.C,D6*%
X91988000Y-50999000D02*
X97373000Y-50999000D01*
X91988000Y-54919000D02*
X91988000Y-50999000D01*
X97373000Y-54919000D02*
X91988000Y-54919000D01*
D11*
%TO.C,Q1*%
X93016000Y-62571500D02*
X93016000Y-65571500D01*
X93016000Y-65571500D02*
X99516000Y-65571500D01*
X99516000Y-65571500D02*
X99516000Y-62571500D01*
X99516000Y-62571500D02*
X93016000Y-62571500D01*
D12*
%TO.C,R3*%
X90845000Y-35423600D02*
X95845000Y-35423600D01*
X90845000Y-32343600D02*
X95845000Y-32343600D01*
%TO.C,R4*%
X105880000Y-59491000D02*
X107480000Y-59491000D01*
X105880000Y-58111000D02*
X107480000Y-58111000D01*
%TO.C,R5*%
X97545400Y-32628200D02*
X97545400Y-37628200D01*
X100625400Y-32628200D02*
X100625400Y-37628200D01*
%TO.C,R6*%
X108356000Y-55761500D02*
X109956000Y-55761500D01*
X108356000Y-57141500D02*
X109956000Y-57141500D01*
%TO.C,R7*%
X97396400Y-40407200D02*
X98996400Y-40407200D01*
X97396400Y-41787200D02*
X98996400Y-41787200D01*
%TO.C,R8*%
X109895000Y-61484000D02*
X114895000Y-61484000D01*
X109895000Y-58404000D02*
X114895000Y-58404000D01*
%TO.C,R9*%
X97396400Y-45546400D02*
X98996400Y-45546400D01*
X97396400Y-44166400D02*
X98996400Y-44166400D01*
%TO.C,R10*%
X126889000Y-54205500D02*
X126889000Y-59205500D01*
X123809000Y-54205500D02*
X123809000Y-59205500D01*
%TO.C,R11*%
X85198600Y-38622200D02*
X85438600Y-38622200D01*
X85198600Y-37222200D02*
X85438600Y-37222200D01*
%TO.C,R13*%
X101919000Y-60141500D02*
X101919000Y-60381500D01*
X100519000Y-60141500D02*
X100519000Y-60381500D01*
%TO.C,R16*%
X83707600Y-32318200D02*
X88707600Y-32318200D01*
X83707600Y-35398200D02*
X88707600Y-35398200D01*
%TO.C,R17*%
X105118000Y-61286000D02*
X106718000Y-61286000D01*
X105118000Y-62666000D02*
X106718000Y-62666000D01*
D13*
%TO.C,D3*%
G36*
X88528972Y-56314500D02*
G01*
X88954000Y-56314500D01*
X88954000Y-55064472D01*
X88528972Y-55064472D01*
X88528972Y-56314500D01*
G37*
X88528972Y-56314500D02*
X88954000Y-56314500D01*
X88954000Y-55064472D01*
X88528972Y-55064472D01*
X88528972Y-56314500D01*
%TO.C,C2*%
D14*
X88017616Y-67544107D02*
X88036364Y-67562855D01*
X88092607Y-67581602D01*
X88130102Y-67581602D01*
X88186345Y-67562855D01*
X88223841Y-67525359D01*
X88242588Y-67487864D01*
X88261336Y-67412873D01*
X88261336Y-67356630D01*
X88242588Y-67281640D01*
X88223841Y-67244144D01*
X88186345Y-67206649D01*
X88130102Y-67187901D01*
X88092607Y-67187901D01*
X88036364Y-67206649D01*
X88017616Y-67225397D01*
X87867635Y-67225397D02*
X87848887Y-67206649D01*
X87811392Y-67187901D01*
X87717654Y-67187901D01*
X87680158Y-67206649D01*
X87661411Y-67225397D01*
X87642663Y-67262892D01*
X87642663Y-67300387D01*
X87661411Y-67356630D01*
X87886383Y-67581602D01*
X87642663Y-67581602D01*
%TO.C,D4*%
D15*
X96955380Y-41933904D02*
X95955380Y-41933904D01*
X95955380Y-42172000D01*
X96003000Y-42314857D01*
X96098238Y-42410095D01*
X96193476Y-42457714D01*
X96383952Y-42505333D01*
X96526809Y-42505333D01*
X96717285Y-42457714D01*
X96812523Y-42410095D01*
X96907761Y-42314857D01*
X96955380Y-42172000D01*
X96955380Y-41933904D01*
X96288714Y-43362476D02*
X96955380Y-43362476D01*
X95907761Y-43124380D02*
X96622047Y-42886285D01*
X96622047Y-43505333D01*
%TO.C,D5*%
X87250495Y-44936180D02*
X87250495Y-43936180D01*
X87012400Y-43936180D01*
X86869542Y-43983800D01*
X86774304Y-44079038D01*
X86726685Y-44174276D01*
X86679066Y-44364752D01*
X86679066Y-44507609D01*
X86726685Y-44698085D01*
X86774304Y-44793323D01*
X86869542Y-44888561D01*
X87012400Y-44936180D01*
X87250495Y-44936180D01*
X85774304Y-43936180D02*
X86250495Y-43936180D01*
X86298114Y-44412371D01*
X86250495Y-44364752D01*
X86155257Y-44317133D01*
X85917161Y-44317133D01*
X85821923Y-44364752D01*
X85774304Y-44412371D01*
X85726685Y-44507609D01*
X85726685Y-44745704D01*
X85774304Y-44840942D01*
X85821923Y-44888561D01*
X85917161Y-44936180D01*
X86155257Y-44936180D01*
X86250495Y-44888561D01*
X86298114Y-44840942D01*
%TO.C,D6*%
X95861095Y-56061380D02*
X95861095Y-55061380D01*
X95623000Y-55061380D01*
X95480142Y-55109000D01*
X95384904Y-55204238D01*
X95337285Y-55299476D01*
X95289666Y-55489952D01*
X95289666Y-55632809D01*
X95337285Y-55823285D01*
X95384904Y-55918523D01*
X95480142Y-56013761D01*
X95623000Y-56061380D01*
X95861095Y-56061380D01*
X94432523Y-55061380D02*
X94623000Y-55061380D01*
X94718238Y-55109000D01*
X94765857Y-55156619D01*
X94861095Y-55299476D01*
X94908714Y-55489952D01*
X94908714Y-55870904D01*
X94861095Y-55966142D01*
X94813476Y-56013761D01*
X94718238Y-56061380D01*
X94527761Y-56061380D01*
X94432523Y-56013761D01*
X94384904Y-55966142D01*
X94337285Y-55870904D01*
X94337285Y-55632809D01*
X94384904Y-55537571D01*
X94432523Y-55489952D01*
X94527761Y-55442333D01*
X94718238Y-55442333D01*
X94813476Y-55489952D01*
X94861095Y-55537571D01*
X94908714Y-55632809D01*
%TO.C,Q1*%
D14*
X92371856Y-64552091D02*
X92324155Y-64456687D01*
X92228751Y-64361283D01*
X92085645Y-64218177D01*
X92037943Y-64122774D01*
X92037943Y-64027370D01*
X92276453Y-64075072D02*
X92228751Y-63979668D01*
X92133347Y-63884264D01*
X91942539Y-63836562D01*
X91608626Y-63836562D01*
X91417818Y-63884264D01*
X91322415Y-63979668D01*
X91274713Y-64075072D01*
X91274713Y-64265879D01*
X91322415Y-64361283D01*
X91417818Y-64456687D01*
X91608626Y-64504389D01*
X91942539Y-64504389D01*
X92133347Y-64456687D01*
X92228751Y-64361283D01*
X92276453Y-64265879D01*
X92276453Y-64075072D01*
X92276453Y-65458427D02*
X92276453Y-64886004D01*
X92276453Y-65172215D02*
X91274713Y-65172215D01*
X91417818Y-65076812D01*
X91513222Y-64981408D01*
X91560924Y-64886004D01*
%TO.C,R1*%
X108962602Y-32355383D02*
X108775126Y-32224149D01*
X108962602Y-32130411D02*
X108568901Y-32130411D01*
X108568901Y-32280392D01*
X108587649Y-32317887D01*
X108606397Y-32336635D01*
X108643892Y-32355383D01*
X108700135Y-32355383D01*
X108737630Y-32336635D01*
X108756378Y-32317887D01*
X108775126Y-32280392D01*
X108775126Y-32130411D01*
X108962602Y-32730336D02*
X108962602Y-32505364D01*
X108962602Y-32617850D02*
X108568901Y-32617850D01*
X108625144Y-32580355D01*
X108662640Y-32542859D01*
X108681387Y-32505364D01*
%TO.C,R2*%
X114846116Y-36681602D02*
X114977350Y-36494126D01*
X115071088Y-36681602D02*
X115071088Y-36287901D01*
X114921107Y-36287901D01*
X114883612Y-36306649D01*
X114864864Y-36325397D01*
X114846116Y-36362892D01*
X114846116Y-36419135D01*
X114864864Y-36456630D01*
X114883612Y-36475378D01*
X114921107Y-36494126D01*
X115071088Y-36494126D01*
X114696135Y-36325397D02*
X114677387Y-36306649D01*
X114639892Y-36287901D01*
X114546154Y-36287901D01*
X114508658Y-36306649D01*
X114489911Y-36325397D01*
X114471163Y-36362892D01*
X114471163Y-36400387D01*
X114489911Y-36456630D01*
X114714883Y-36681602D01*
X114471163Y-36681602D01*
%TO.C,R3*%
X93512249Y-36892615D02*
X93847417Y-36413804D01*
X94086822Y-36892615D02*
X94086822Y-35887111D01*
X93703773Y-35887111D01*
X93608011Y-35934993D01*
X93560130Y-35982874D01*
X93512249Y-36078636D01*
X93512249Y-36222279D01*
X93560130Y-36318042D01*
X93608011Y-36365923D01*
X93703773Y-36413804D01*
X94086822Y-36413804D01*
X93177081Y-35887111D02*
X92554626Y-35887111D01*
X92889794Y-36270161D01*
X92746150Y-36270161D01*
X92650388Y-36318042D01*
X92602507Y-36365923D01*
X92554626Y-36461685D01*
X92554626Y-36701091D01*
X92602507Y-36796853D01*
X92650388Y-36844734D01*
X92746150Y-36892615D01*
X93033437Y-36892615D01*
X93129199Y-36844734D01*
X93177081Y-36796853D01*
%TO.C,R4*%
X106343060Y-60238879D02*
X106481497Y-60041112D01*
X106580381Y-60238879D02*
X106580381Y-59823568D01*
X106422167Y-59823568D01*
X106382613Y-59843345D01*
X106362837Y-59863122D01*
X106343060Y-59902675D01*
X106343060Y-59962005D01*
X106362837Y-60001559D01*
X106382613Y-60021335D01*
X106422167Y-60041112D01*
X106580381Y-60041112D01*
X105987079Y-59962005D02*
X105987079Y-60238879D01*
X106085963Y-59803792D02*
X106184846Y-60100442D01*
X105927749Y-60100442D01*
%TO.C,R5*%
X96986125Y-34960281D02*
X96507314Y-34625113D01*
X96986125Y-34385707D02*
X95980621Y-34385707D01*
X95980621Y-34768756D01*
X96028503Y-34864518D01*
X96076384Y-34912399D01*
X96172146Y-34960281D01*
X96315789Y-34960281D01*
X96411552Y-34912399D01*
X96459433Y-34864518D01*
X96507314Y-34768756D01*
X96507314Y-34385707D01*
X95980621Y-35870022D02*
X95980621Y-35391211D01*
X96459433Y-35343330D01*
X96411552Y-35391211D01*
X96363671Y-35486973D01*
X96363671Y-35726379D01*
X96411552Y-35822141D01*
X96459433Y-35870022D01*
X96555195Y-35917903D01*
X96794601Y-35917903D01*
X96890363Y-35870022D01*
X96938244Y-35822141D01*
X96986125Y-35726379D01*
X96986125Y-35486973D01*
X96938244Y-35391211D01*
X96890363Y-35343330D01*
%TO.C,R6*%
X108819060Y-57889379D02*
X108957497Y-57691612D01*
X109056381Y-57889379D02*
X109056381Y-57474068D01*
X108898167Y-57474068D01*
X108858613Y-57493845D01*
X108838837Y-57513622D01*
X108819060Y-57553175D01*
X108819060Y-57612505D01*
X108838837Y-57652059D01*
X108858613Y-57671835D01*
X108898167Y-57691612D01*
X109056381Y-57691612D01*
X108463079Y-57474068D02*
X108542186Y-57474068D01*
X108581739Y-57493845D01*
X108601516Y-57513622D01*
X108641070Y-57572952D01*
X108660846Y-57652059D01*
X108660846Y-57810272D01*
X108641070Y-57849826D01*
X108621293Y-57869603D01*
X108581739Y-57889379D01*
X108502633Y-57889379D01*
X108463079Y-57869603D01*
X108443302Y-57849826D01*
X108423526Y-57810272D01*
X108423526Y-57711389D01*
X108443302Y-57671835D01*
X108463079Y-57652059D01*
X108502633Y-57632282D01*
X108581739Y-57632282D01*
X108621293Y-57652059D01*
X108641070Y-57671835D01*
X108660846Y-57711389D01*
%TO.C,R7*%
X97859460Y-42535079D02*
X97997897Y-42337312D01*
X98096781Y-42535079D02*
X98096781Y-42119768D01*
X97938567Y-42119768D01*
X97899013Y-42139545D01*
X97879237Y-42159322D01*
X97859460Y-42198875D01*
X97859460Y-42258205D01*
X97879237Y-42297759D01*
X97899013Y-42317535D01*
X97938567Y-42337312D01*
X98096781Y-42337312D01*
X97721023Y-42119768D02*
X97444149Y-42119768D01*
X97622139Y-42535079D01*
%TO.C,R8*%
X112562249Y-62953015D02*
X112897417Y-62474204D01*
X113136822Y-62953015D02*
X113136822Y-61947511D01*
X112753773Y-61947511D01*
X112658011Y-61995393D01*
X112610130Y-62043274D01*
X112562249Y-62139036D01*
X112562249Y-62282679D01*
X112610130Y-62378442D01*
X112658011Y-62426323D01*
X112753773Y-62474204D01*
X113136822Y-62474204D01*
X111987675Y-62378442D02*
X112083437Y-62330561D01*
X112131318Y-62282679D01*
X112179199Y-62186917D01*
X112179199Y-62139036D01*
X112131318Y-62043274D01*
X112083437Y-61995393D01*
X111987675Y-61947511D01*
X111796150Y-61947511D01*
X111700388Y-61995393D01*
X111652507Y-62043274D01*
X111604626Y-62139036D01*
X111604626Y-62186917D01*
X111652507Y-62282679D01*
X111700388Y-62330561D01*
X111796150Y-62378442D01*
X111987675Y-62378442D01*
X112083437Y-62426323D01*
X112131318Y-62474204D01*
X112179199Y-62569966D01*
X112179199Y-62761491D01*
X112131318Y-62857253D01*
X112083437Y-62905134D01*
X111987675Y-62953015D01*
X111796150Y-62953015D01*
X111700388Y-62905134D01*
X111652507Y-62857253D01*
X111604626Y-62761491D01*
X111604626Y-62569966D01*
X111652507Y-62474204D01*
X111700388Y-62426323D01*
X111796150Y-62378442D01*
%TO.C,R9*%
X97859460Y-46294279D02*
X97997897Y-46096512D01*
X98096781Y-46294279D02*
X98096781Y-45878968D01*
X97938567Y-45878968D01*
X97899013Y-45898745D01*
X97879237Y-45918522D01*
X97859460Y-45958075D01*
X97859460Y-46017405D01*
X97879237Y-46056959D01*
X97899013Y-46076735D01*
X97938567Y-46096512D01*
X98096781Y-46096512D01*
X97661693Y-46294279D02*
X97582586Y-46294279D01*
X97543033Y-46274503D01*
X97523256Y-46254726D01*
X97483702Y-46195396D01*
X97463926Y-46116289D01*
X97463926Y-45958075D01*
X97483702Y-45918522D01*
X97503479Y-45898745D01*
X97543033Y-45878968D01*
X97622139Y-45878968D01*
X97661693Y-45898745D01*
X97681470Y-45918522D01*
X97701246Y-45958075D01*
X97701246Y-46056959D01*
X97681470Y-46096512D01*
X97661693Y-46116289D01*
X97622139Y-46136066D01*
X97543033Y-46136066D01*
X97503479Y-46116289D01*
X97483702Y-46096512D01*
X97463926Y-46056959D01*
%TO.C,R10*%
X123249725Y-56058769D02*
X122770914Y-55723601D01*
X123249725Y-55484195D02*
X122244221Y-55484195D01*
X122244221Y-55867245D01*
X122292103Y-55963007D01*
X122339984Y-56010888D01*
X122435746Y-56058769D01*
X122579389Y-56058769D01*
X122675152Y-56010888D01*
X122723033Y-55963007D01*
X122770914Y-55867245D01*
X122770914Y-55484195D01*
X123249725Y-57016392D02*
X123249725Y-56441818D01*
X123249725Y-56729105D02*
X122244221Y-56729105D01*
X122387865Y-56633343D01*
X122483627Y-56537581D01*
X122531508Y-56441818D01*
X122244221Y-57638847D02*
X122244221Y-57734609D01*
X122292103Y-57830371D01*
X122339984Y-57878253D01*
X122435746Y-57926134D01*
X122627271Y-57974015D01*
X122866676Y-57974015D01*
X123058201Y-57926134D01*
X123153963Y-57878253D01*
X123201844Y-57830371D01*
X123249725Y-57734609D01*
X123249725Y-57638847D01*
X123201844Y-57543085D01*
X123153963Y-57495203D01*
X123058201Y-57447322D01*
X122866676Y-57399441D01*
X122627271Y-57399441D01*
X122435746Y-57447322D01*
X122339984Y-57495203D01*
X122292103Y-57543085D01*
X122244221Y-57638847D01*
%TO.C,R11*%
X85131693Y-39400302D02*
X85262927Y-39212826D01*
X85356665Y-39400302D02*
X85356665Y-39006601D01*
X85206684Y-39006601D01*
X85169188Y-39025349D01*
X85150441Y-39044097D01*
X85131693Y-39081592D01*
X85131693Y-39137835D01*
X85150441Y-39175330D01*
X85169188Y-39194078D01*
X85206684Y-39212826D01*
X85356665Y-39212826D01*
X84756740Y-39400302D02*
X84981712Y-39400302D01*
X84869226Y-39400302D02*
X84869226Y-39006601D01*
X84906721Y-39062844D01*
X84944216Y-39100340D01*
X84981712Y-39119087D01*
X84381786Y-39400302D02*
X84606758Y-39400302D01*
X84494272Y-39400302D02*
X84494272Y-39006601D01*
X84531768Y-39062844D01*
X84569263Y-39100340D01*
X84606758Y-39119087D01*
%TO.C,R12*%
X93443593Y-38459602D02*
X93574827Y-38272126D01*
X93668565Y-38459602D02*
X93668565Y-38065901D01*
X93518584Y-38065901D01*
X93481088Y-38084649D01*
X93462341Y-38103397D01*
X93443593Y-38140892D01*
X93443593Y-38197135D01*
X93462341Y-38234630D01*
X93481088Y-38253378D01*
X93518584Y-38272126D01*
X93668565Y-38272126D01*
X93068640Y-38459602D02*
X93293612Y-38459602D01*
X93181126Y-38459602D02*
X93181126Y-38065901D01*
X93218621Y-38122144D01*
X93256116Y-38159640D01*
X93293612Y-38178387D01*
X92918658Y-38103397D02*
X92899911Y-38084649D01*
X92862415Y-38065901D01*
X92768677Y-38065901D01*
X92731182Y-38084649D01*
X92712434Y-38103397D01*
X92693686Y-38140892D01*
X92693686Y-38178387D01*
X92712434Y-38234630D01*
X92937406Y-38459602D01*
X92693686Y-38459602D01*
%TO.C,R13*%
X100097102Y-59568406D02*
X99909626Y-59437172D01*
X100097102Y-59343434D02*
X99703401Y-59343434D01*
X99703401Y-59493415D01*
X99722149Y-59530911D01*
X99740897Y-59549658D01*
X99778392Y-59568406D01*
X99834635Y-59568406D01*
X99872130Y-59549658D01*
X99890878Y-59530911D01*
X99909626Y-59493415D01*
X99909626Y-59343434D01*
X100097102Y-59943359D02*
X100097102Y-59718387D01*
X100097102Y-59830873D02*
X99703401Y-59830873D01*
X99759644Y-59793378D01*
X99797140Y-59755883D01*
X99815887Y-59718387D01*
X99703401Y-60074593D02*
X99703401Y-60318313D01*
X99853383Y-60187079D01*
X99853383Y-60243322D01*
X99872130Y-60280817D01*
X99890878Y-60299565D01*
X99928373Y-60318313D01*
X100022112Y-60318313D01*
X100059607Y-60299565D01*
X100078355Y-60280817D01*
X100097102Y-60243322D01*
X100097102Y-60130836D01*
X100078355Y-60093341D01*
X100059607Y-60074593D01*
%TO.C,R14*%
X111160093Y-36808602D02*
X111291327Y-36621126D01*
X111385065Y-36808602D02*
X111385065Y-36414901D01*
X111235084Y-36414901D01*
X111197588Y-36433649D01*
X111178841Y-36452397D01*
X111160093Y-36489892D01*
X111160093Y-36546135D01*
X111178841Y-36583630D01*
X111197588Y-36602378D01*
X111235084Y-36621126D01*
X111385065Y-36621126D01*
X110785140Y-36808602D02*
X111010112Y-36808602D01*
X110897626Y-36808602D02*
X110897626Y-36414901D01*
X110935121Y-36471144D01*
X110972616Y-36508640D01*
X111010112Y-36527387D01*
X110447682Y-36546135D02*
X110447682Y-36808602D01*
X110541420Y-36396154D02*
X110635158Y-36677369D01*
X110391439Y-36677369D01*
%TO.C,R15*%
X92733237Y-57612925D02*
X92840345Y-57459914D01*
X92916851Y-57612925D02*
X92916851Y-57291601D01*
X92794442Y-57291601D01*
X92763839Y-57306903D01*
X92748538Y-57322204D01*
X92733237Y-57352806D01*
X92733237Y-57398709D01*
X92748538Y-57429312D01*
X92763839Y-57444613D01*
X92794442Y-57459914D01*
X92916851Y-57459914D01*
X92427214Y-57612925D02*
X92610828Y-57612925D01*
X92519021Y-57612925D02*
X92519021Y-57291601D01*
X92549623Y-57337505D01*
X92580226Y-57368107D01*
X92610828Y-57383408D01*
X92136492Y-57291601D02*
X92289504Y-57291601D01*
X92304805Y-57444613D01*
X92289504Y-57429312D01*
X92258902Y-57414011D01*
X92182396Y-57414011D01*
X92151794Y-57429312D01*
X92136492Y-57444613D01*
X92121191Y-57475215D01*
X92121191Y-57551721D01*
X92136492Y-57582323D01*
X92151794Y-57597624D01*
X92182396Y-57612925D01*
X92258902Y-57612925D01*
X92289504Y-57597624D01*
X92304805Y-57582323D01*
%TO.C,R16*%
X86853660Y-36867215D02*
X87188828Y-36388404D01*
X87428234Y-36867215D02*
X87428234Y-35861711D01*
X87045185Y-35861711D01*
X86949422Y-35909593D01*
X86901541Y-35957474D01*
X86853660Y-36053236D01*
X86853660Y-36196879D01*
X86901541Y-36292642D01*
X86949422Y-36340523D01*
X87045185Y-36388404D01*
X87428234Y-36388404D01*
X85896037Y-36867215D02*
X86470611Y-36867215D01*
X86183324Y-36867215D02*
X86183324Y-35861711D01*
X86279086Y-36005355D01*
X86374849Y-36101117D01*
X86470611Y-36148998D01*
X85034177Y-35861711D02*
X85225701Y-35861711D01*
X85321463Y-35909593D01*
X85369345Y-35957474D01*
X85465107Y-36101117D01*
X85512988Y-36292642D01*
X85512988Y-36675691D01*
X85465107Y-36771453D01*
X85417226Y-36819334D01*
X85321463Y-36867215D01*
X85129939Y-36867215D01*
X85034177Y-36819334D01*
X84986295Y-36771453D01*
X84938414Y-36675691D01*
X84938414Y-36436285D01*
X84986295Y-36340523D01*
X85034177Y-36292642D01*
X85129939Y-36244761D01*
X85321463Y-36244761D01*
X85417226Y-36292642D01*
X85465107Y-36340523D01*
X85512988Y-36436285D01*
%TO.C,R17*%
X105778827Y-63413879D02*
X105917264Y-63216112D01*
X106016148Y-63413879D02*
X106016148Y-62998568D01*
X105857934Y-62998568D01*
X105818381Y-63018345D01*
X105798604Y-63038122D01*
X105778827Y-63077675D01*
X105778827Y-63137005D01*
X105798604Y-63176559D01*
X105818381Y-63196335D01*
X105857934Y-63216112D01*
X106016148Y-63216112D01*
X105383293Y-63413879D02*
X105620613Y-63413879D01*
X105501953Y-63413879D02*
X105501953Y-62998568D01*
X105541507Y-63057898D01*
X105581060Y-63097452D01*
X105620613Y-63117229D01*
X105244856Y-62998568D02*
X104967982Y-62998568D01*
X105145972Y-63413879D01*
%TO.C,D3*%
X89358705Y-57358094D02*
X89358705Y-56717068D01*
X89206080Y-56717068D01*
X89114504Y-56747594D01*
X89053454Y-56808644D01*
X89022929Y-56869694D01*
X88992404Y-56991794D01*
X88992404Y-57083369D01*
X89022929Y-57205469D01*
X89053454Y-57266519D01*
X89114504Y-57327569D01*
X89206080Y-57358094D01*
X89358705Y-57358094D01*
X88778729Y-56717068D02*
X88381903Y-56717068D01*
X88595579Y-56961269D01*
X88504003Y-56961269D01*
X88442953Y-56991794D01*
X88412428Y-57022319D01*
X88381903Y-57083369D01*
X88381903Y-57235994D01*
X88412428Y-57297044D01*
X88442953Y-57327569D01*
X88504003Y-57358094D01*
X88687154Y-57358094D01*
X88748204Y-57327569D01*
X88778729Y-57297044D01*
%TD*%
M02*
