%TF.GenerationSoftware,KiCad,Pcbnew,(5.1.9)-1*%
%TF.CreationDate,2021-03-01T12:10:23+05:30*%
%TF.ProjectId,Charger,43686172-6765-4722-9e6b-696361645f70,rev?*%
%TF.SameCoordinates,Original*%
%TF.FileFunction,Soldermask,Bot*%
%TF.FilePolarity,Negative*%
%FSLAX46Y46*%
G04 Gerber Fmt 4.6, Leading zero omitted, Abs format (unit mm)*
G04 Created by KiCad (PCBNEW (5.1.9)-1) date 2021-03-01 12:10:23*
%MOMM*%
%LPD*%
G01*
G04 APERTURE LIST*
%ADD10R,1.080000X1.420000*%
%ADD11C,1.650000*%
%ADD12R,1.650000X1.650000*%
%ADD13C,1.300000*%
%ADD14R,0.950000X2.150000*%
%ADD15R,3.250000X2.150000*%
%ADD16R,0.600000X0.560000*%
%ADD17R,0.560000X0.600000*%
%ADD18R,1.600000X2.720000*%
%ADD19R,0.940000X1.020000*%
%ADD20R,2.720000X1.600000*%
%ADD21R,1.000000X1.420000*%
%ADD22R,1.420000X1.000000*%
%ADD23R,0.490000X0.600000*%
%ADD24O,1.524000X3.048000*%
%ADD25R,1.050000X0.600000*%
G04 APERTURE END LIST*
D10*
%TO.C,C2*%
X89287000Y-66103500D03*
X87497000Y-66103500D03*
%TD*%
D11*
%TO.C,D2*%
X83642200Y-56422000D03*
D12*
X83642200Y-67022000D03*
%TD*%
%TO.C,D4*%
G36*
G01*
X95303001Y-45547000D02*
X92402999Y-45547000D01*
G75*
G02*
X92153000Y-45297001I0J249999D01*
G01*
X92153000Y-44496999D01*
G75*
G02*
X92402999Y-44247000I249999J0D01*
G01*
X95303001Y-44247000D01*
G75*
G02*
X95553000Y-44496999I0J-249999D01*
G01*
X95553000Y-45297001D01*
G75*
G02*
X95303001Y-45547000I-249999J0D01*
G01*
G37*
G36*
G01*
X95303001Y-41097000D02*
X92402999Y-41097000D01*
G75*
G02*
X92153000Y-40847001I0J249999D01*
G01*
X92153000Y-40046999D01*
G75*
G02*
X92402999Y-39797000I249999J0D01*
G01*
X95303001Y-39797000D01*
G75*
G02*
X95553000Y-40046999I0J-249999D01*
G01*
X95553000Y-40847001D01*
G75*
G02*
X95303001Y-41097000I-249999J0D01*
G01*
G37*
%TD*%
%TO.C,D5*%
G36*
G01*
X83637400Y-43283801D02*
X83637400Y-40383799D01*
G75*
G02*
X83887399Y-40133800I249999J0D01*
G01*
X84687401Y-40133800D01*
G75*
G02*
X84937400Y-40383799I0J-249999D01*
G01*
X84937400Y-43283801D01*
G75*
G02*
X84687401Y-43533800I-249999J0D01*
G01*
X83887399Y-43533800D01*
G75*
G02*
X83637400Y-43283801I0J249999D01*
G01*
G37*
G36*
G01*
X88087400Y-43283801D02*
X88087400Y-40383799D01*
G75*
G02*
X88337399Y-40133800I249999J0D01*
G01*
X89137401Y-40133800D01*
G75*
G02*
X89387400Y-40383799I0J-249999D01*
G01*
X89387400Y-43283801D01*
G75*
G02*
X89137401Y-43533800I-249999J0D01*
G01*
X88337399Y-43533800D01*
G75*
G02*
X88087400Y-43283801I0J249999D01*
G01*
G37*
%TD*%
%TO.C,D6*%
G36*
G01*
X96698000Y-54409001D02*
X96698000Y-51508999D01*
G75*
G02*
X96947999Y-51259000I249999J0D01*
G01*
X97748001Y-51259000D01*
G75*
G02*
X97998000Y-51508999I0J-249999D01*
G01*
X97998000Y-54409001D01*
G75*
G02*
X97748001Y-54659000I-249999J0D01*
G01*
X96947999Y-54659000D01*
G75*
G02*
X96698000Y-54409001I0J249999D01*
G01*
G37*
G36*
G01*
X92248000Y-54409001D02*
X92248000Y-51508999D01*
G75*
G02*
X92497999Y-51259000I249999J0D01*
G01*
X93298001Y-51259000D01*
G75*
G02*
X93548000Y-51508999I0J-249999D01*
G01*
X93548000Y-54409001D01*
G75*
G02*
X93298001Y-54659000I-249999J0D01*
G01*
X92497999Y-54659000D01*
G75*
G02*
X92248000Y-54409001I0J249999D01*
G01*
G37*
%TD*%
D13*
%TO.C,J2*%
X121920000Y-60793000D03*
X121920000Y-55793000D03*
%TD*%
%TO.C,J3*%
X121983500Y-36298500D03*
X121983500Y-41298500D03*
%TD*%
D14*
%TO.C,Q1*%
X93966000Y-61171500D03*
X96266000Y-61171500D03*
X98566000Y-61171500D03*
D15*
X96266000Y-66971500D03*
%TD*%
D16*
%TO.C,R1*%
X109664500Y-31696000D03*
X109664500Y-32566000D03*
%TD*%
D17*
%TO.C,R2*%
X114925500Y-35623500D03*
X114055500Y-35623500D03*
%TD*%
D18*
%TO.C,R3*%
X91185000Y-33883600D03*
X95505000Y-33883600D03*
%TD*%
D19*
%TO.C,R4*%
X105890000Y-58801000D03*
X107470000Y-58801000D03*
%TD*%
D20*
%TO.C,R5*%
X99085400Y-32968200D03*
X99085400Y-37288200D03*
%TD*%
D19*
%TO.C,R6*%
X109946000Y-56451500D03*
X108366000Y-56451500D03*
%TD*%
%TO.C,R7*%
X98986400Y-41097200D03*
X97406400Y-41097200D03*
%TD*%
D18*
%TO.C,R8*%
X110235000Y-59944000D03*
X114555000Y-59944000D03*
%TD*%
D19*
%TO.C,R9*%
X97406400Y-44856400D03*
X98986400Y-44856400D03*
%TD*%
D20*
%TO.C,R10*%
X125349000Y-58865500D03*
X125349000Y-54545500D03*
%TD*%
D21*
%TO.C,R11*%
X84383600Y-37922200D03*
X86253600Y-37922200D03*
%TD*%
D17*
%TO.C,R12*%
X92465500Y-37401500D03*
X93335500Y-37401500D03*
%TD*%
D22*
%TO.C,R13*%
X101219000Y-61196500D03*
X101219000Y-59326500D03*
%TD*%
D17*
%TO.C,R14*%
X111052000Y-35750500D03*
X110182000Y-35750500D03*
%TD*%
D23*
%TO.C,R15*%
X93101500Y-56324500D03*
X92191500Y-56324500D03*
%TD*%
D18*
%TO.C,R16*%
X88367600Y-33858200D03*
X84047600Y-33858200D03*
%TD*%
D19*
%TO.C,R17*%
X106708000Y-61976000D03*
X105128000Y-61976000D03*
%TD*%
D24*
%TO.C,U1*%
X113157000Y-51117500D03*
X110617000Y-51117500D03*
X108077000Y-51117500D03*
%TD*%
D25*
%TO.C,D3*%
X87754000Y-55689500D03*
X90554000Y-55689500D03*
%TD*%
M02*
