%TF.GenerationSoftware,KiCad,Pcbnew,(5.1.9)-1*%
%TF.CreationDate,2021-03-01T12:10:23+05:30*%
%TF.ProjectId,Charger,43686172-6765-4722-9e6b-696361645f70,rev?*%
%TF.SameCoordinates,Original*%
%TF.FileFunction,Copper,L1,Top*%
%TF.FilePolarity,Positive*%
%FSLAX46Y46*%
G04 Gerber Fmt 4.6, Leading zero omitted, Abs format (unit mm)*
G04 Created by KiCad (PCBNEW (5.1.9)-1) date 2021-03-01 12:10:23*
%MOMM*%
%LPD*%
G01*
G04 APERTURE LIST*
%TA.AperFunction,SMDPad,CuDef*%
%ADD10R,2.200000X1.600000*%
%TD*%
%TA.AperFunction,SMDPad,CuDef*%
%ADD11R,1.600000X2.200000*%
%TD*%
%TA.AperFunction,SMDPad,CuDef*%
%ADD12R,2.000000X2.000000*%
%TD*%
%TA.AperFunction,SMDPad,CuDef*%
%ADD13R,1.800000X1.170000*%
%TD*%
%TA.AperFunction,SMDPad,CuDef*%
%ADD14R,1.659999X1.659999*%
%TD*%
%TA.AperFunction,SMDPad,CuDef*%
%ADD15O,0.240000X0.599999*%
%TD*%
%TA.AperFunction,SMDPad,CuDef*%
%ADD16O,0.599999X0.240000*%
%TD*%
%TA.AperFunction,SMDPad,CuDef*%
%ADD17R,1.080000X1.420000*%
%TD*%
%TA.AperFunction,SMDPad,CuDef*%
%ADD18R,1.910000X0.910000*%
%TD*%
%TA.AperFunction,ComponentPad*%
%ADD19C,1.650000*%
%TD*%
%TA.AperFunction,ComponentPad*%
%ADD20R,1.650000X1.650000*%
%TD*%
%TA.AperFunction,SMDPad,CuDef*%
%ADD21R,2.800000X0.900000*%
%TD*%
%TA.AperFunction,SMDPad,CuDef*%
%ADD22R,5.000000X2.500000*%
%TD*%
%TA.AperFunction,SMDPad,CuDef*%
%ADD23R,0.490000X0.600000*%
%TD*%
%TA.AperFunction,SMDPad,CuDef*%
%ADD24R,1.700000X1.170000*%
%TD*%
%TA.AperFunction,ComponentPad*%
%ADD25O,1.524000X3.048000*%
%TD*%
%TA.AperFunction,SMDPad,CuDef*%
%ADD26R,0.279400X1.397000*%
%TD*%
%TA.AperFunction,SMDPad,CuDef*%
%ADD27R,2.946400X1.752600*%
%TD*%
G04 APERTURE END LIST*
D10*
%TO.P,C9,2*%
%TO.N,gnd*%
X102465000Y-57785000D03*
%TO.P,C9,1*%
%TO.N,Net-(C9-Pad1)*%
X99465000Y-57785000D03*
%TD*%
%TO.P,C8,2*%
%TO.N,gnd*%
%TA.AperFunction,SMDPad,CuDef*%
G36*
G01*
X102066000Y-64390500D02*
X103166000Y-64390500D01*
G75*
G02*
X103416000Y-64640500I0J-250000D01*
G01*
X103416000Y-67140500D01*
G75*
G02*
X103166000Y-67390500I-250000J0D01*
G01*
X102066000Y-67390500D01*
G75*
G02*
X101816000Y-67140500I0J250000D01*
G01*
X101816000Y-64640500D01*
G75*
G02*
X102066000Y-64390500I250000J0D01*
G01*
G37*
%TD.AperFunction*%
%TO.P,C8,1*%
%TO.N,Net-(C8-Pad1)*%
%TA.AperFunction,SMDPad,CuDef*%
G36*
G01*
X102066000Y-59990500D02*
X103166000Y-59990500D01*
G75*
G02*
X103416000Y-60240500I0J-250000D01*
G01*
X103416000Y-62740500D01*
G75*
G02*
X103166000Y-62990500I-250000J0D01*
G01*
X102066000Y-62990500D01*
G75*
G02*
X101816000Y-62740500I0J250000D01*
G01*
X101816000Y-60240500D01*
G75*
G02*
X102066000Y-59990500I250000J0D01*
G01*
G37*
%TD.AperFunction*%
%TD*%
%TO.P,C7,2*%
%TO.N,Net-(C7-Pad2)*%
X93432500Y-57848500D03*
%TO.P,C7,1*%
%TO.N,dcm*%
X96432500Y-57848500D03*
%TD*%
%TO.P,C5,2*%
%TO.N,gnd*%
X86828500Y-65659000D03*
%TO.P,C5,1*%
%TO.N,VinL*%
X89828500Y-65659000D03*
%TD*%
D11*
%TO.P,C4,2*%
%TO.N,gnd*%
X102298500Y-51459000D03*
%TO.P,C4,1*%
%TO.N,Net-(C4-Pad1)*%
X102298500Y-54459000D03*
%TD*%
%TO.P,C3,2*%
%TO.N,gnd*%
%TA.AperFunction,SMDPad,CuDef*%
G36*
G01*
X97451000Y-51951000D02*
X96351000Y-51951000D01*
G75*
G02*
X96101000Y-51701000I0J250000D01*
G01*
X96101000Y-49601000D01*
G75*
G02*
X96351000Y-49351000I250000J0D01*
G01*
X97451000Y-49351000D01*
G75*
G02*
X97701000Y-49601000I0J-250000D01*
G01*
X97701000Y-51701000D01*
G75*
G02*
X97451000Y-51951000I-250000J0D01*
G01*
G37*
%TD.AperFunction*%
%TO.P,C3,1*%
%TO.N,Vint*%
%TA.AperFunction,SMDPad,CuDef*%
G36*
G01*
X97451000Y-55551000D02*
X96351000Y-55551000D01*
G75*
G02*
X96101000Y-55301000I0J250000D01*
G01*
X96101000Y-53201000D01*
G75*
G02*
X96351000Y-52951000I250000J0D01*
G01*
X97451000Y-52951000D01*
G75*
G02*
X97701000Y-53201000I0J-250000D01*
G01*
X97701000Y-55301000D01*
G75*
G02*
X97451000Y-55551000I-250000J0D01*
G01*
G37*
%TD.AperFunction*%
%TD*%
%TO.P,C1,2*%
%TO.N,gnd*%
%TA.AperFunction,SMDPad,CuDef*%
G36*
G01*
X95144500Y-64581000D02*
X96244500Y-64581000D01*
G75*
G02*
X96494500Y-64831000I0J-250000D01*
G01*
X96494500Y-67331000D01*
G75*
G02*
X96244500Y-67581000I-250000J0D01*
G01*
X95144500Y-67581000D01*
G75*
G02*
X94894500Y-67331000I0J250000D01*
G01*
X94894500Y-64831000D01*
G75*
G02*
X95144500Y-64581000I250000J0D01*
G01*
G37*
%TD.AperFunction*%
%TO.P,C1,1*%
%TO.N,Net-(C1-Pad1)*%
%TA.AperFunction,SMDPad,CuDef*%
G36*
G01*
X95144500Y-60181000D02*
X96244500Y-60181000D01*
G75*
G02*
X96494500Y-60431000I0J-250000D01*
G01*
X96494500Y-62931000D01*
G75*
G02*
X96244500Y-63181000I-250000J0D01*
G01*
X95144500Y-63181000D01*
G75*
G02*
X94894500Y-62931000I0J250000D01*
G01*
X94894500Y-60431000D01*
G75*
G02*
X95144500Y-60181000I250000J0D01*
G01*
G37*
%TD.AperFunction*%
%TD*%
D12*
%TO.P,TP2,1*%
%TO.N,AC2*%
X78854300Y-64160400D03*
%TD*%
%TO.P,TP1,1*%
%TO.N,AC1*%
X78981300Y-59397900D03*
%TD*%
D13*
%TO.P,F1,2*%
%TO.N,Net-(C1-Pad1)*%
X78790800Y-50981000D03*
%TO.P,F1,1*%
%TO.N,Net-(D1-Pad1)*%
X78790800Y-53921000D03*
%TD*%
D14*
%TO.P,U4,17*%
%TO.N,Net-(U4-Pad17)*%
X114363500Y-33655000D03*
D15*
%TO.P,U4,16*%
%TO.N,Net-(R6-Pad1)*%
X113613502Y-32255000D03*
%TO.P,U4,15*%
%TO.N,Net-(R5-Pad1)*%
X114113500Y-32255000D03*
%TO.P,U4,14*%
%TO.N,gnd*%
X114613502Y-32255000D03*
%TO.P,U4,13*%
%TO.N,Net-(U4-Pad13)*%
X115113501Y-32255000D03*
D16*
%TO.P,U4,12*%
%TO.N,Vout2*%
X115763500Y-32904999D03*
%TO.P,U4,11*%
%TO.N,DM2*%
X115763500Y-33404998D03*
%TO.P,U4,10*%
%TO.N,DP2*%
X115763500Y-33905000D03*
%TO.P,U4,9*%
%TO.N,Stat2*%
X115763500Y-34404998D03*
D15*
%TO.P,U4,8*%
%TO.N,Vint*%
X115113501Y-35055000D03*
%TO.P,U4,7*%
X114613502Y-35055000D03*
%TO.P,U4,6*%
%TO.N,gnd*%
X114113500Y-35055000D03*
%TO.P,U4,5*%
%TO.N,Vint*%
X113613502Y-35055000D03*
D16*
%TO.P,U4,4*%
%TO.N,Stat1*%
X112963500Y-34404998D03*
%TO.P,U4,3*%
%TO.N,Net-(U4-Pad3)*%
X112963500Y-33905000D03*
%TO.P,U4,2*%
%TO.N,Net-(U4-Pad2)*%
X112963500Y-33404998D03*
%TO.P,U4,1*%
%TO.N,Vint*%
X112963500Y-32904999D03*
%TD*%
D14*
%TO.P,U2,17*%
%TO.N,Net-(U2-Pad17)*%
X114236500Y-46418500D03*
D15*
%TO.P,U2,16*%
%TO.N,Net-(R4-Pad1)*%
X113486502Y-45018500D03*
%TO.P,U2,15*%
%TO.N,Net-(R3-Pad1)*%
X113986500Y-45018500D03*
%TO.P,U2,14*%
%TO.N,gnd*%
X114486502Y-45018500D03*
%TO.P,U2,13*%
%TO.N,Net-(U2-Pad13)*%
X114986501Y-45018500D03*
D16*
%TO.P,U2,12*%
%TO.N,Vout1*%
X115636500Y-45668499D03*
%TO.P,U2,11*%
%TO.N,DM1*%
X115636500Y-46168498D03*
%TO.P,U2,10*%
%TO.N,DP1*%
X115636500Y-46668500D03*
%TO.P,U2,9*%
%TO.N,Stat1*%
X115636500Y-47168498D03*
D15*
%TO.P,U2,8*%
%TO.N,Vint*%
X114986501Y-47818500D03*
%TO.P,U2,7*%
X114486502Y-47818500D03*
%TO.P,U2,6*%
%TO.N,gnd*%
X113986500Y-47818500D03*
%TO.P,U2,5*%
%TO.N,Vint*%
X113486502Y-47818500D03*
D16*
%TO.P,U2,4*%
%TO.N,Stat2*%
X112836500Y-47168498D03*
%TO.P,U2,3*%
%TO.N,Net-(U2-Pad3)*%
X112836500Y-46668500D03*
%TO.P,U2,2*%
%TO.N,Net-(U2-Pad2)*%
X112836500Y-46168498D03*
%TO.P,U2,1*%
%TO.N,Vint*%
X112836500Y-45668499D03*
%TD*%
D17*
%TO.P,C6,1*%
%TO.N,Net-(C6-Pad1)*%
X90227500Y-50800000D03*
%TO.P,C6,2*%
%TO.N,gnd*%
X92017500Y-50800000D03*
%TD*%
D18*
%TO.P,D1,1*%
%TO.N,Net-(D1-Pad1)*%
X87532800Y-53549000D03*
%TO.P,D1,2*%
%TO.N,gnd*%
X87532800Y-51099000D03*
%TO.P,D1,3*%
%TO.N,AC1*%
X81732800Y-51099000D03*
%TO.P,D1,4*%
%TO.N,AC2*%
X81732800Y-53549000D03*
%TD*%
D19*
%TO.P,D2,A*%
%TO.N,Net-(D2-PadA)*%
X83642200Y-56422000D03*
D20*
%TO.P,D2,C*%
%TO.N,VinL*%
X83642200Y-67022000D03*
%TD*%
D21*
%TO.P,J2,04*%
%TO.N,gnd*%
X118070000Y-54793000D03*
%TO.P,J2,02*%
%TO.N,DM1*%
X118070000Y-59293000D03*
%TO.P,J2,01*%
%TO.N,Vout1*%
X118070000Y-61793000D03*
%TO.P,J2,03*%
%TO.N,DP1*%
X118070000Y-57293000D03*
D22*
%TO.P,J2,S1*%
%TO.N,Net-(J2-PadS1)*%
X120320000Y-65543000D03*
%TO.P,J2,S2*%
X120320000Y-51043000D03*
%TD*%
%TO.P,J3,S2*%
%TO.N,Net-(J3-PadS1)*%
X120383500Y-31548500D03*
%TO.P,J3,S1*%
X120383500Y-46048500D03*
D21*
%TO.P,J3,03*%
%TO.N,DP2*%
X118133500Y-37798500D03*
%TO.P,J3,01*%
%TO.N,Vout2*%
X118133500Y-42298500D03*
%TO.P,J3,02*%
%TO.N,DM2*%
X118133500Y-39798500D03*
%TO.P,J3,04*%
%TO.N,gnd*%
X118133500Y-35298500D03*
%TD*%
D23*
%TO.P,R18,1*%
%TO.N,Net-(Q1-Pad3)*%
X91620000Y-53403500D03*
%TO.P,R18,2*%
%TO.N,gnd*%
X92530000Y-53403500D03*
%TD*%
D24*
%TO.P,T1,1*%
%TO.N,Vsmp*%
X104009800Y-45262800D03*
%TO.P,T1,2*%
%TO.N,Net-(T1-Pad2)*%
X104009800Y-42722800D03*
%TO.P,T1,3*%
%TO.N,Vsmp*%
X104009800Y-40182800D03*
%TO.P,T1,4*%
%TO.N,gnd*%
X104009800Y-37642800D03*
%TO.P,T1,5*%
%TO.N,Net-(T1-Pad5)*%
X104009800Y-35102800D03*
%TO.P,T1,6*%
%TO.N,gnd*%
X104009800Y-32562800D03*
%TO.P,T1,7*%
X79479800Y-32562800D03*
%TO.P,T1,8*%
%TO.N,Net-(T1-Pad8)*%
X79479800Y-35102800D03*
%TO.P,T1,9*%
%TO.N,dcm*%
X79479800Y-37642800D03*
%TO.P,T1,10*%
%TO.N,Net-(T1-Pad10)*%
X79479800Y-40182800D03*
%TO.P,T1,11*%
%TO.N,Net-(D5-Pad1)*%
X79479800Y-42722800D03*
%TO.P,T1,12*%
%TO.N,Net-(C1-Pad1)*%
X79479800Y-45262800D03*
%TD*%
D25*
%TO.P,U1,1*%
%TO.N,gnd*%
X113157000Y-51117500D03*
%TO.P,U1,2*%
%TO.N,Vint*%
X110617000Y-51117500D03*
%TO.P,U1,3*%
%TO.N,Net-(C8-Pad1)*%
X108077000Y-51117500D03*
%TD*%
D26*
%TO.P,U3,1*%
%TO.N,Net-(R7-Pad1)*%
X90321130Y-58064400D03*
%TO.P,U3,2*%
X89820750Y-58064400D03*
%TO.P,U3,3*%
%TO.N,Net-(R10-Pad1)*%
X89320369Y-58064400D03*
%TO.P,U3,4*%
%TO.N,Net-(R7-Pad1)*%
X88819991Y-58064400D03*
%TO.P,U3,5*%
%TO.N,Net-(R7-Pad2)*%
X88319609Y-58064400D03*
%TO.P,U3,6*%
%TO.N,Net-(C4-Pad1)*%
X87819231Y-58064400D03*
%TO.P,U3,7*%
%TO.N,Net-(C2-Pad2)*%
X87318850Y-58064400D03*
%TO.P,U3,8*%
%TO.N,Net-(C2-Pad1)*%
X86818470Y-58064400D03*
%TO.P,U3,9*%
%TO.N,Net-(C9-Pad1)*%
X86818470Y-62433200D03*
%TO.P,U3,10*%
%TO.N,Net-(C7-Pad2)*%
X87318850Y-62433200D03*
%TO.P,U3,11*%
%TO.N,VinL*%
X87819231Y-62433200D03*
%TO.P,U3,12*%
%TO.N,en*%
X88319609Y-62433200D03*
%TO.P,U3,13*%
%TO.N,Net-(C6-Pad1)*%
X88819991Y-62433200D03*
%TO.P,U3,14*%
%TO.N,Net-(Q1-Pad1)*%
X89320369Y-62433200D03*
%TO.P,U3,15*%
%TO.N,Net-(Q1-Pad3)*%
X89820750Y-62433200D03*
%TO.P,U3,16*%
%TO.N,Vin_sense*%
X90321130Y-62433200D03*
D27*
%TO.P,U3,17*%
%TO.N,gnd*%
X88569800Y-60248800D03*
%TD*%
M02*
